<svg width="1024" height="1024" viewBox="0 0 1024 1024" fill="none" xmlns="http://www.w3.org/2000/svg" role="img" aria-labelledby="title desc">
  <title id="title">thetravelplanner.co square logo</title>
  <desc id="desc">A square travel planner logo with a compass pin mark and the domain thetravelplanner.co.</desc>
  <rect width="1024" height="1024" rx="192" fill="#F8FCFB"/>
  <circle cx="512" cy="374" r="242" fill="#E5F6F3"/>
  <path d="M512 156C413.1 156 333 236.1 333 335C333 473.6 512 604 512 604C512 604 691 473.6 691 335C691 236.1 610.9 156 512 156Z" fill="#0E9A9A"/>
  <circle cx="512" cy="335" r="112" fill="#FFFFFF"/>
  <path d="M580.7 262.4L540.2 407.6C538.2 414.7 528.6 416.1 524.7 409.8L497.7 366.1L450.8 346.1C443.9 343.2 444.4 333.3 451.6 331.1L568.5 252.7C575.5 250.6 582.7 255.3 580.7 262.4Z" fill="#102A3A"/>
  <path d="M502.7 365.3L575 258.6L475.4 342.7L502.7 365.3Z" fill="#FF6B5A"/>
  <path d="M353 665C438 724 586 724 671 665" stroke="#102A3A" stroke-width="28" stroke-linecap="round"/>
  <text x="512" y="807" text-anchor="middle" fill="#102A3A" font-family="Inter, Avenir Next, Arial, sans-serif" font-size="82" font-weight="850" letter-spacing="0">thetravelplanner</text>
  <text x="512" y="900" text-anchor="middle" fill="#0E9A9A" font-family="Inter, Avenir Next, Arial, sans-serif" font-size="82" font-weight="850" letter-spacing="0">.co</text>
</svg>
